<?xml version="1.0" encoding="UTF-8" ?>
<!DOCTYPE svg PUBLIC "-//W3C//DTD SVG 1.1//EN" "http://www.w3.org/Graphics/SVG/1.1/DTD/svg11.dtd">
<svg width="625pt" height="171pt" viewBox="0 0 625 171" version="1.1" xmlns="http://www.w3.org/2000/svg">
<g id="#000000ff">
<path fill="#000000" opacity="1.00" d=" M 0.85 38.33 C 12.23 38.45 23.61 38.31 34.99 38.40 C 40.88 38.48 46.88 39.40 52.21 42.04 C 58.12 45.08 61.94 51.47 62.35 58.05 C 62.95 63.91 62.71 70.29 59.38 75.38 C 57.59 78.28 54.54 80.00 51.85 81.96 C 58.05 82.93 64.58 85.39 67.82 91.14 C 72.36 99.31 72.71 109.99 68.24 118.26 C 62.75 127.69 51.17 130.64 41.01 131.28 C 27.62 131.62 14.22 131.31 0.83 131.46 C 0.89 100.42 0.85 69.37 0.85 38.33 M 24.25 56.48 C 24.32 62.73 24.27 68.99 24.29 75.24 C 29.43 75.39 34.94 75.20 39.23 71.97 C 40.90 68.21 41.88 63.41 39.09 59.91 C 35.32 55.83 29.28 56.53 24.25 56.48 M 24.45 92.58 C 24.55 99.58 24.55 106.58 24.44 113.59 C 29.92 113.59 35.45 113.27 40.82 112.15 C 43.28 111.08 46.10 109.72 46.91 106.92 C 48.51 102.52 47.29 96.33 42.61 94.35 C 36.92 91.68 30.49 93.01 24.45 92.58 Z" />
<path fill="#000000" opacity="1.00" d=" M 101.91 38.36 C 111.36 38.40 120.81 38.35 130.27 38.39 C 136.31 46.91 142.10 55.59 148.15 64.10 C 153.83 55.42 159.85 46.98 165.63 38.36 C 175.11 38.43 184.59 38.28 194.07 38.45 C 183.58 52.84 173.49 67.51 163.07 81.95 C 161.65 84.09 159.49 86.17 159.90 88.97 C 159.96 103.07 159.90 117.16 159.94 131.26 C 151.99 131.21 144.04 131.20 136.09 131.27 C 135.53 116.20 136.13 101.11 135.78 86.04 C 124.42 70.20 113.22 54.24 101.91 38.36 Z" />
<path fill="#000000" opacity="1.00" d=" M 240.07 38.35 C 251.72 38.43 263.37 38.33 275.02 38.40 C 284.01 38.66 293.72 40.15 300.57 46.51 C 308.33 53.96 310.02 65.98 307.02 75.99 C 304.60 84.81 296.75 91.97 287.57 93.00 C 297.36 105.80 307.28 118.51 316.95 131.40 C 307.10 131.48 297.24 131.38 287.39 131.46 C 281.66 121.99 275.54 112.76 269.69 103.37 C 267.97 100.64 266.51 97.71 264.20 95.41 C 264.10 107.41 264.17 119.41 264.17 131.41 C 256.13 131.45 248.10 131.42 240.06 131.43 C 240.11 100.40 240.09 69.38 240.07 38.35 M 263.90 56.61 C 263.89 64.55 263.89 72.48 263.90 80.41 C 267.95 80.23 272.09 80.27 275.99 79.04 C 279.48 77.84 282.91 75.10 283.31 71.20 C 283.58 67.72 283.87 63.59 281.13 60.95 C 276.79 56.20 269.78 56.53 263.90 56.61 Z" />
<path fill="#000000" opacity="1.00" d=" M 364.17 38.34 C 375.79 38.45 387.41 38.31 399.03 38.40 C 412.35 38.57 425.70 44.49 434.21 54.85 C 441.70 63.32 445.84 74.71 445.42 86.01 C 445.34 98.09 439.75 109.79 431.13 118.12 C 422.75 125.99 411.54 130.92 400.01 131.25 C 388.07 131.20 376.13 131.23 364.20 131.24 C 364.16 100.27 364.22 69.30 364.17 38.34 M 387.78 58.46 C 387.86 76.07 387.80 93.69 387.80 111.30 C 395.62 111.70 404.04 111.15 410.67 106.55 C 417.36 102.07 420.78 93.85 420.54 85.94 C 420.94 77.71 418.21 68.70 411.27 63.72 C 404.58 58.66 395.83 58.31 387.78 58.46 Z" />
<path fill="#000000" opacity="1.00" d=" M 494.42 38.30 C 502.47 38.45 510.53 38.36 518.58 38.35 C 518.50 69.38 518.53 100.41 518.57 131.44 C 510.53 131.44 502.50 131.40 494.47 131.46 C 494.48 100.41 494.58 69.35 494.42 38.30 Z" />
<path fill="#000000" opacity="1.00" d=" M 571.84 38.39 C 589.56 38.38 607.28 38.35 625.00 38.41 L 625.00 58.49 C 615.22 58.51 605.44 58.52 595.66 58.49 C 595.74 63.85 595.74 69.21 595.66 74.57 C 604.89 74.52 614.11 74.60 623.34 74.51 C 623.24 81.24 623.24 87.98 623.34 94.71 C 614.12 94.63 604.90 94.71 595.68 94.66 C 595.73 100.20 595.71 105.74 595.70 111.28 C 605.47 111.31 615.23 111.21 625.00 111.34 L 625.00 131.38 C 607.28 131.49 589.56 131.42 571.85 131.41 C 571.87 100.40 571.89 69.40 571.84 38.39 Z" />
</g>
</svg>
