<?xml version="1.0" encoding="UTF-8" ?>
<!DOCTYPE svg PUBLIC "-//W3C//DTD SVG 1.1//EN" "http://www.w3.org/Graphics/SVG/1.1/DTD/svg11.dtd">
<svg width="625pt" height="171pt" viewBox="0 0 625 171" version="1.1" xmlns="http://www.w3.org/2000/svg">
<g id="#ff0000ff">
<path fill="#ff0000" opacity="1.00" d=" M 3.36 31.36 C 20.87 31.54 38.38 31.24 55.89 31.54 C 67.48 31.87 78.44 40.71 80.58 52.22 C 82.66 61.24 79.94 71.68 72.60 77.63 C 70.05 79.91 66.55 80.69 63.99 82.97 C 68.94 85.45 74.55 87.40 77.91 92.10 C 85.64 103.08 85.32 119.88 75.54 129.53 C 69.26 135.38 60.43 137.90 51.97 137.57 C 35.78 137.99 19.57 138.08 3.37 137.71 C 3.45 102.26 3.47 66.81 3.36 31.36 M 25.51 50.51 C 25.39 58.24 25.41 65.98 25.47 73.71 C 32.96 73.85 40.46 73.93 47.94 73.69 C 52.57 73.53 57.09 70.44 58.42 65.92 C 58.90 62.59 59.26 58.77 57.26 55.84 C 55.12 52.33 50.92 50.49 46.90 50.52 C 39.77 50.36 32.64 50.51 25.51 50.51 M 25.57 92.90 C 25.43 101.43 25.50 109.96 25.54 118.49 C 33.37 118.65 41.21 118.78 49.04 118.48 C 54.51 118.44 60.04 114.52 60.85 108.92 C 62.48 102.80 58.98 95.64 52.65 94.01 C 43.75 92.31 34.59 92.99 25.57 92.90 Z" />
<path fill="#ff0000" opacity="1.00" d=" M 314.44 31.42 C 338.86 31.49 363.27 31.51 387.69 31.41 C 387.73 37.46 387.58 43.51 387.76 49.56 C 385.00 50.82 381.93 50.31 379.00 50.38 C 364.78 50.31 350.56 50.35 336.34 50.34 C 336.33 58.15 336.26 65.97 336.37 73.78 C 349.21 74.28 362.13 73.13 374.91 74.40 C 375.28 80.50 375.32 86.65 374.72 92.74 C 361.92 93.08 349.11 92.65 336.31 92.96 C 336.09 107.81 336.27 122.67 336.22 137.53 C 328.95 137.62 321.69 137.50 314.42 137.60 C 314.52 102.21 314.49 66.82 314.44 31.42 Z" />
<path fill="#ff0000" opacity="1.00" d=" M 388.62 74.66 C 395.97 64.43 408.72 59.36 421.00 58.78 C 431.88 58.94 443.01 63.47 449.89 72.10 C 457.21 81.41 459.57 93.67 459.28 105.27 C 439.88 105.72 420.47 105.15 401.08 105.57 C 402.01 112.30 406.05 118.75 412.43 121.51 C 417.18 124.24 422.80 123.91 428.08 123.78 C 434.36 123.75 439.76 120.06 445.00 117.02 C 447.75 121.14 450.49 125.28 453.35 129.33 C 447.43 133.87 440.55 137.19 433.19 138.52 C 428.22 139.33 423.17 140.53 418.13 139.62 C 406.71 138.32 394.99 133.33 388.32 123.59 C 378.14 109.33 378.73 88.90 388.62 74.66 M 410.45 77.12 C 404.93 80.00 400.69 85.89 401.35 92.32 C 414.41 92.35 427.47 92.34 440.53 92.32 C 440.38 90.09 440.58 87.72 439.46 85.69 C 434.77 75.15 420.14 71.27 410.45 77.12 Z" />
<path fill="#ff0000" opacity="1.00" d=" M 494.36 60.20 C 505.59 57.08 518.29 59.36 527.57 66.47 C 539.41 75.34 543.53 91.18 542.55 105.36 C 523.36 105.59 504.17 105.25 484.98 105.53 C 484.98 112.85 490.50 118.75 496.66 121.95 C 501.00 124.51 506.23 123.70 511.04 123.75 C 517.41 123.72 523.25 120.61 528.32 117.00 C 531.22 121.16 534.21 125.27 537.00 129.51 C 531.00 133.75 524.35 137.25 517.03 138.43 C 511.96 139.16 506.81 140.56 501.68 139.65 C 496.53 138.77 491.35 137.76 486.55 135.65 C 478.43 131.77 471.60 125.04 468.02 116.74 C 463.69 106.85 463.42 95.36 466.81 85.16 C 471.23 73.09 481.65 63.00 494.36 60.20 M 498.48 75.19 C 491.09 77.32 483.98 84.01 485.10 92.31 C 498.24 92.33 511.38 92.36 524.52 92.29 C 524.13 89.40 523.54 86.48 522.10 83.92 C 517.52 76.00 507.03 72.76 498.48 75.19 Z" />
<path fill="#ff0000" opacity="1.00" d=" M 89.19 61.26 C 95.58 61.28 101.96 61.24 108.35 61.29 C 108.32 76.87 108.33 92.46 108.33 108.04 C 108.09 113.80 111.71 119.54 117.18 121.52 C 125.06 124.81 135.69 123.37 140.48 115.71 C 142.13 112.78 142.67 109.36 142.58 106.04 C 142.54 91.11 142.59 76.18 142.54 61.25 C 148.94 61.25 155.33 61.26 161.72 61.24 C 161.64 77.19 161.71 93.13 161.67 109.07 C 161.67 117.57 158.17 126.10 151.64 131.66 C 144.49 138.21 134.33 139.65 125.02 140.05 C 113.96 139.54 101.79 136.48 94.83 127.19 C 89.11 120.19 88.41 110.65 89.18 102.00 C 89.23 88.42 89.22 74.84 89.19 61.26 Z" />
<path fill="#ff0000" opacity="1.00" d=" M 169.52 61.33 C 190.10 61.18 210.69 61.18 231.27 61.33 C 231.28 64.90 231.49 68.48 231.29 72.06 C 231.02 75.19 229.05 77.78 227.11 80.11 C 218.26 90.63 210.04 101.67 201.40 112.36 C 199.16 114.85 197.10 117.51 195.57 120.50 C 207.58 120.77 219.60 120.62 231.61 120.58 C 231.64 126.26 231.59 131.93 231.65 137.60 C 210.89 137.49 190.14 137.54 169.38 137.58 C 169.50 132.88 168.99 128.14 169.65 123.48 C 170.57 121.28 172.24 119.53 173.63 117.63 C 181.17 108.16 188.78 98.75 196.10 89.11 C 198.89 85.36 202.33 82.02 204.26 77.70 C 192.70 77.50 181.13 77.63 169.56 77.64 C 169.36 72.21 169.38 66.76 169.52 61.33 Z" />
<path fill="#ff0000" opacity="1.00" d=" M 238.55 61.36 C 259.11 61.15 279.68 61.26 300.25 61.30 C 300.19 65.54 300.47 69.80 300.14 74.03 C 299.12 76.52 297.25 78.52 295.63 80.63 C 288.13 89.83 280.83 99.18 273.56 108.56 C 270.56 112.58 266.88 116.11 264.56 120.61 C 276.59 121.32 288.72 119.97 300.69 121.29 C 300.83 126.72 300.70 132.15 300.79 137.59 C 280.02 137.54 259.26 137.56 238.50 137.58 C 238.60 132.87 238.26 128.14 238.67 123.45 C 239.99 120.67 242.12 118.38 244.00 115.96 C 251.68 106.61 258.98 96.95 266.49 87.45 C 268.91 84.27 271.87 81.43 273.48 77.70 C 261.81 77.52 250.13 77.60 238.46 77.66 C 238.49 72.23 238.41 66.79 238.55 61.36 Z" />
<path fill="#ff0000" opacity="1.00" d=" M 549.26 60.63 C 562.89 60.96 576.62 59.79 590.17 61.73 C 599.81 63.20 609.23 68.12 614.73 76.37 C 622.61 87.41 623.98 102.60 618.71 115.01 C 613.55 127.40 601.18 135.93 587.96 137.37 C 575.07 138.17 562.15 137.86 549.24 137.88 C 549.26 112.13 549.23 86.38 549.26 60.63 M 567.41 76.48 C 567.43 91.65 567.40 106.82 567.43 121.99 C 576.08 122.05 585.74 123.47 593.34 118.36 C 600.03 114.00 603.36 105.81 602.84 97.99 C 603.34 89.68 598.09 81.50 590.44 78.32 C 583.16 75.17 575.07 76.87 567.41 76.48 Z" />
</g>
</svg>
