<svg xmlns="http://www.w3.org/2000/svg" xmlns:xlink="http://www.w3.org/1999/xlink" width="1200" zoomAndPan="magnify" viewBox="0 0 900 262.499992" height="350" preserveAspectRatio="xMidYMid meet" version="1.0"><defs><g/></defs><g fill="#000000" fill-opacity="1"><g transform="translate(160.487856, 110.456242)"><g><path d="M 37.734375 1.46875 C 27.273438 1.46875 19.101562 -1.632812 13.21875 -7.84375 C 7.34375 -14.050781 4.40625 -22.867188 4.40625 -34.296875 C 4.40625 -41.804688 5.695312 -48.253906 8.28125 -53.640625 C 10.863281 -59.035156 14.488281 -63.117188 19.15625 -65.890625 C 23.832031 -68.671875 29.238281 -70.0625 35.375 -70.0625 C 39.101562 -70.0625 42.859375 -68.988281 46.640625 -66.84375 C 48.078125 -66.050781 49.515625 -65.003906 50.953125 -63.703125 C 52.066406 -65.398438 53.210938 -66.738281 54.390625 -67.71875 C 55.566406 -68.5625 56.21875 -69.019531 56.34375 -69.09375 L 58.796875 -69.09375 L 58.796875 -50.46875 L 54.875 -50.46875 C 54.03125 -53.601562 52.757812 -56.445312 51.0625 -59 C 49.488281 -61.476562 47.539062 -63.535156 45.21875 -65.171875 C 42.90625 -66.804688 40.242188 -67.625 37.234375 -67.625 C 32.734375 -67.625 28.992188 -65.007812 26.015625 -59.78125 C 23.046875 -54.550781 21.5625 -46.054688 21.5625 -34.296875 C 21.5625 -22.335938 23.175781 -13.796875 26.40625 -8.671875 C 29.644531 -3.546875 34.070312 -0.984375 39.6875 -0.984375 C 42.757812 -0.984375 45.679688 -1.847656 48.453125 -3.578125 C 51.234375 -5.304688 53.488281 -7.609375 55.21875 -10.484375 C 56.945312 -13.359375 57.8125 -16.394531 57.8125 -19.59375 L 60.265625 -19.59375 C 60.265625 -15.875 59.269531 -12.394531 57.28125 -9.15625 C 55.289062 -5.925781 52.578125 -3.347656 49.140625 -1.421875 C 45.710938 0.503906 41.910156 1.46875 37.734375 1.46875 Z M 37.734375 1.46875 "/></g></g></g><g fill="#000000" fill-opacity="1"><g transform="translate(263.389032, 110.456242)"><g><path d="M 4.90625 0 L 4.90625 -1.46875 L 10.78125 -2.9375 L 10.78125 -65.65625 L 4.90625 -67.125 L 4.90625 -68.59375 L 32.828125 -68.59375 L 32.828125 -67.125 L 26.953125 -65.65625 L 26.953125 -35.28125 L 48.015625 -35.28125 L 48.015625 -65.65625 L 42.140625 -67.125 L 42.140625 -68.59375 L 70.0625 -68.59375 L 70.0625 -67.125 L 64.1875 -65.65625 L 64.1875 -2.9375 L 70.0625 -1.46875 L 70.0625 0 L 42.140625 0 L 42.140625 -1.46875 L 48.015625 -2.9375 L 48.015625 -32.828125 L 26.953125 -32.828125 L 26.953125 -2.9375 L 32.828125 -1.46875 L 32.828125 0 Z M 4.90625 0 "/></g></g></g><g fill="#000000" fill-opacity="1"><g transform="translate(377.557892, 110.456242)"><g><path d="M -1.953125 -1.46875 L 5.875 -4.40625 L 32.828125 -69.578125 L 35.765625 -69.578125 L 63.703125 -2.9375 L 68.59375 -1.46875 L 68.59375 0 L 56.84375 0 C 53.445312 0 50.671875 -0.765625 48.515625 -2.296875 C 46.359375 -3.835938 44.753906 -5.847656 43.703125 -8.328125 L 38.703125 -20.09375 L 15.28125 -20.09375 L 8.8125 -4.40625 L 16.171875 -1.46875 L 16.171875 0 L -1.953125 0 Z M 16.265625 -22.546875 L 37.734375 -22.546875 L 26.953125 -48.3125 Z M 16.265625 -22.546875 "/></g></g></g><g fill="#000000" fill-opacity="1"><g transform="translate(483.398408, 110.456242)"><g><path d="M 4.90625 -1.46875 L 10.78125 -2.9375 L 10.78125 -65.65625 L 4.90625 -67.125 L 4.90625 -68.59375 L 30.875 -68.59375 C 41.976562 -68.59375 49.976562 -66.910156 54.875 -63.546875 C 59.78125 -60.179688 62.234375 -55.492188 62.234375 -49.484375 C 62.234375 -45.429688 61.15625 -42.148438 59 -39.640625 C 56.84375 -37.128906 54.066406 -35.25 50.671875 -34 C 47.078125 -32.632812 43.253906 -31.914062 39.203125 -31.84375 L 39.203125 -31.359375 C 41.617188 -31.222656 43.738281 -30.863281 45.5625 -30.28125 C 50.144531 -28.84375 53.25 -26.265625 54.875 -22.546875 L 63.703125 -2.9375 L 68.59375 -1.46875 L 68.59375 0 L 54.875 0 C 49.519531 0 45.601562 -2.773438 43.125 -8.328125 L 33.3125 -30.375 L 26.953125 -30.375 L 26.953125 -2.9375 L 33.8125 -1.46875 L 33.8125 0 L 4.90625 0 Z M 30.875 -32.828125 C 35.445312 -32.828125 39.035156 -34.265625 41.640625 -37.140625 C 44.253906 -40.015625 45.5625 -44.128906 45.5625 -49.484375 C 45.5625 -54.847656 44.253906 -58.96875 41.640625 -61.84375 C 39.035156 -64.71875 35.445312 -66.15625 30.875 -66.15625 L 26.953125 -66.15625 L 26.953125 -32.828125 Z M 30.875 -32.828125 "/></g></g></g><g fill="#000000" fill-opacity="1"><g transform="translate(591.198537, 110.456242)"><g><path d="M 4.90625 -1.46875 L 10.78125 -2.9375 L 10.78125 -65.65625 L 4.90625 -67.125 L 4.90625 -68.59375 L 32.828125 -68.59375 L 32.828125 -67.125 L 26.953125 -65.65625 L 26.953125 -2.453125 L 48.015625 -2.453125 C 48.015625 -6.566406 49.0625 -10.390625 51.15625 -13.921875 C 52.070312 -15.421875 53.148438 -16.660156 54.390625 -17.640625 L 57.328125 -17.640625 L 57.328125 0 L 4.90625 0 Z M 4.90625 -1.46875 "/></g></g></g><g fill="#000000" fill-opacity="1"><g transform="translate(690.180454, 110.456242)"><g><path d="M 4.90625 0 L 4.90625 -1.46875 L 10.78125 -2.9375 L 10.78125 -65.65625 L 4.90625 -67.125 L 4.90625 -68.59375 L 32.828125 -68.59375 L 32.828125 -67.125 L 26.953125 -65.65625 L 26.953125 -2.9375 L 32.828125 -1.46875 L 32.828125 0 Z M 4.90625 0 "/></g></g></g><g fill="#000000" fill-opacity="1"><g transform="translate(63.410356, 204.989868)"><g><path d="M 4.90625 -1.46875 L 10.78125 -2.9375 L 10.78125 -65.65625 L 4.90625 -67.125 L 4.90625 -68.59375 L 29.890625 -68.59375 C 41.585938 -68.59375 50.554688 -65.585938 56.796875 -59.578125 C 63.035156 -53.566406 66.15625 -45.140625 66.15625 -34.296875 C 66.15625 -23.453125 63.035156 -15.023438 56.796875 -9.015625 C 50.554688 -3.003906 41.585938 0 29.890625 0 L 4.90625 0 Z M 29.890625 -2.453125 C 35.960938 -2.453125 40.664062 -4.914062 44 -9.84375 C 47.332031 -14.78125 49 -22.929688 49 -34.296875 C 49 -45.671875 47.332031 -53.820312 44 -58.75 C 40.664062 -63.6875 35.960938 -66.15625 29.890625 -66.15625 L 26.953125 -66.15625 L 26.953125 -2.453125 Z M 29.890625 -2.453125 "/></g></g></g><g fill="#000000" fill-opacity="1"><g transform="translate(172.680121, 204.989868)"><g><path d="M 4.40625 -62.71875 C 4.40625 -64.875 4.941406 -66.554688 6.015625 -67.765625 C 7.097656 -68.972656 8.523438 -69.578125 10.296875 -69.578125 C 12.054688 -69.578125 13.472656 -68.972656 14.546875 -67.765625 C 15.628906 -66.554688 16.171875 -64.875 16.171875 -62.71875 L 12.25 -43.609375 L 8.328125 -43.609375 Z M 4.40625 -62.71875 "/></g></g></g><g fill="#000000" fill-opacity="1"><g transform="translate(232.469926, 204.989868)"><g><path d="M -1.953125 -1.46875 L 5.875 -4.40625 L 32.828125 -69.578125 L 35.765625 -69.578125 L 63.703125 -2.9375 L 68.59375 -1.46875 L 68.59375 0 L 56.84375 0 C 53.445312 0 50.671875 -0.765625 48.515625 -2.296875 C 46.359375 -3.835938 44.753906 -5.847656 43.703125 -8.328125 L 38.703125 -20.09375 L 15.28125 -20.09375 L 8.8125 -4.40625 L 16.171875 -1.46875 L 16.171875 0 L -1.953125 0 Z M 16.265625 -22.546875 L 37.734375 -22.546875 L 26.953125 -48.3125 Z M 16.265625 -22.546875 "/></g></g></g><g fill="#000000" fill-opacity="1"><g transform="translate(338.310384, 204.989868)"><g><path d="M 13.71875 -56.34375 L 13.71875 -4.40625 L 21.5625 -1.46875 L 21.5625 0 L 2.9375 0 L 2.9375 -1.46875 L 10.78125 -4.40625 L 10.78125 -65.65625 L 4.90625 -67.125 L 4.90625 -68.59375 L 17.15625 -68.59375 C 20.550781 -68.59375 23.242188 -67.890625 25.234375 -66.484375 C 27.222656 -65.085938 28.9375 -63.015625 30.375 -60.265625 L 51.75 -19.40625 L 68.109375 -60.265625 C 69.222656 -63.140625 70.722656 -65.242188 72.609375 -66.578125 C 74.503906 -67.921875 77.414062 -68.59375 81.34375 -68.59375 L 91.625 -68.59375 L 91.625 -67.125 L 85.75 -65.65625 L 85.75 -2.9375 L 91.625 -1.46875 L 91.625 0 L 63.703125 0 L 63.703125 -1.46875 L 69.578125 -2.9375 L 69.578125 -56.34375 L 46.546875 0.984375 L 43.609375 0.984375 Z M 13.71875 -56.34375 "/></g></g></g><g fill="#000000" fill-opacity="1"><g transform="translate(474.034785, 204.989868)"><g><path d="M 4.90625 -1.46875 L 10.78125 -2.9375 L 10.78125 -65.65625 L 4.90625 -67.125 L 4.90625 -68.59375 L 57.328125 -68.59375 L 57.328125 -50.953125 L 54.390625 -50.953125 C 53.148438 -51.941406 52.070312 -53.1875 51.15625 -54.6875 C 49.0625 -58.207031 48.015625 -62.03125 48.015625 -66.15625 L 26.953125 -66.15625 L 26.953125 -35.28125 L 38.21875 -35.28125 C 38.675781 -37.757812 39.523438 -40.078125 40.765625 -42.234375 C 41.285156 -43.210938 41.90625 -44.160156 42.625 -45.078125 L 45.5625 -45.078125 L 45.5625 -23.03125 L 42.625 -23.03125 C 41.90625 -23.945312 41.285156 -24.894531 40.765625 -25.875 C 39.523438 -28.03125 38.675781 -30.347656 38.21875 -32.828125 L 26.953125 -32.828125 L 26.953125 -2.453125 L 49.984375 -2.453125 C 49.984375 -6.566406 51.023438 -10.390625 53.109375 -13.921875 C 54.023438 -15.421875 55.101562 -16.660156 56.34375 -17.640625 L 59.296875 -17.640625 L 59.296875 0 L 4.90625 0 Z M 4.90625 -1.46875 "/></g></g></g><g fill="#000000" fill-opacity="1"><g transform="translate(576.445936, 204.989868)"><g><path d="M 4.90625 -1.46875 L 10.78125 -2.9375 L 10.78125 -65.65625 L 4.90625 -67.125 L 4.90625 -68.59375 L 32.828125 -68.59375 L 32.828125 -67.125 L 26.953125 -65.65625 L 26.953125 -2.453125 L 48.015625 -2.453125 C 48.015625 -6.566406 49.0625 -10.390625 51.15625 -13.921875 C 52.070312 -15.421875 53.148438 -16.660156 54.390625 -17.640625 L 57.328125 -17.640625 L 57.328125 0 L 4.90625 0 Z M 4.90625 -1.46875 "/></g></g></g><g fill="#000000" fill-opacity="1"><g transform="translate(675.427774, 204.989868)"><g><path d="M 4.90625 0 L 4.90625 -1.46875 L 10.78125 -2.9375 L 10.78125 -65.65625 L 4.90625 -67.125 L 4.90625 -68.59375 L 32.828125 -68.59375 L 32.828125 -67.125 L 26.953125 -65.65625 L 26.953125 -2.9375 L 32.828125 -1.46875 L 32.828125 0 Z M 4.90625 0 "/></g></g></g><g fill="#000000" fill-opacity="1"><g transform="translate(752.364084, 204.989868)"><g><path d="M 36.265625 1.46875 C 29.859375 1.46875 24.253906 0.0820312 19.453125 -2.6875 C 14.648438 -5.46875 10.941406 -9.535156 8.328125 -14.890625 C 5.710938 -20.253906 4.40625 -26.722656 4.40625 -34.296875 C 4.40625 -41.878906 5.710938 -48.347656 8.328125 -53.703125 C 10.941406 -59.054688 14.648438 -63.117188 19.453125 -65.890625 C 24.253906 -68.671875 29.859375 -70.0625 36.265625 -70.0625 C 42.660156 -70.0625 48.257812 -68.671875 53.0625 -65.890625 C 57.863281 -63.117188 61.570312 -59.054688 64.1875 -53.703125 C 66.800781 -48.347656 68.109375 -41.878906 68.109375 -34.296875 C 68.109375 -26.722656 66.800781 -20.253906 64.1875 -14.890625 C 61.570312 -9.535156 57.863281 -5.46875 53.0625 -2.6875 C 48.257812 0.0820312 42.660156 1.46875 36.265625 1.46875 Z M 36.265625 -0.484375 C 38.804688 -0.484375 41.171875 -1.5625 43.359375 -3.71875 C 45.546875 -5.875 47.359375 -9.46875 48.796875 -14.5 C 50.234375 -19.53125 50.953125 -26.128906 50.953125 -34.296875 C 50.953125 -42.460938 50.234375 -49.0625 48.796875 -54.09375 C 47.359375 -59.125 45.546875 -62.71875 43.359375 -64.875 C 41.171875 -67.03125 38.804688 -68.109375 36.265625 -68.109375 C 33.710938 -68.109375 31.34375 -67.03125 29.15625 -64.875 C 26.96875 -62.71875 25.15625 -59.125 23.71875 -54.09375 C 22.28125 -49.0625 21.5625 -42.460938 21.5625 -34.296875 C 21.5625 -26.128906 22.28125 -19.53125 23.71875 -14.5 C 25.15625 -9.46875 26.96875 -5.875 29.15625 -3.71875 C 31.34375 -1.5625 33.710938 -0.484375 36.265625 -0.484375 Z M 36.265625 -0.484375 "/></g></g></g></svg>