<svg width="74" height="64" viewBox="0 0 74 64" fill="none" xmlns="http://www.w3.org/2000/svg">
    <path d="M23.1966 36.3713C23.1966 41.9285 20.0517 43.8918 17.2743 43.8918C16.1437 43.8918 14.8925 43.4829 14.0369 42.566L13.3945 43.6886H12.1741V31.477C12.1741 29.7956 12.1433 27.558 11.4727 26.4125C12.5415 26.1331 13.6104 25.8004 14.6792 25.3687V32.8561C15.4731 31.5303 17.061 30.7404 18.7696 30.7404C21.488 30.7404 23.1966 32.5514 23.1966 36.3738V36.3713ZM20.5399 37.4177C20.5399 33.8238 19.1653 32.371 17.2126 32.371C16.357 32.371 15.4731 32.625 14.6792 33.4428V40.8872C14.6792 42.5431 16.2362 43.1552 17.3051 43.1552C18.618 43.1552 20.5425 42.3907 20.5425 37.4203L20.5399 37.4177Z" fill="#DBEFEE"/>
    <path d="M24.8145 37.2882C24.8145 33.3108 27.2887 30.6846 30.8601 30.6846C34.7065 30.6846 36.7234 33.7172 36.7234 37.339C36.7234 41.291 34.28 43.968 30.6777 43.968C26.8006 43.968 24.8145 40.8821 24.8145 37.2882ZM33.8817 37.9003C33.8817 34.5604 32.9362 31.477 30.5236 31.477C28.6916 31.477 27.6228 33.2625 27.6228 36.7548C27.6228 40.2471 28.5991 43.1781 30.9809 43.1781C32.7204 43.1781 33.8817 41.5221 33.8817 37.9003Z" fill="#DBEFEE"/>
    <path d="M47.441 43.6886C47.2586 43.3584 47.0145 42.7209 46.922 42.2358C46.0356 43.3838 44.8151 43.8664 43.4097 43.8664C40.4781 43.8664 38.2812 41.7253 38.2812 37.8749C38.2812 33.6181 40.938 30.7633 44.6019 30.7633C45.5191 30.7633 46.2822 30.9411 46.8912 31.3246C46.8912 29.694 46.8295 27.5326 46.1897 26.4125C47.2586 26.1331 48.3274 25.8004 49.3963 25.3687V39.7137C49.3963 41.0649 49.5787 42.2384 50.1594 43.6912H47.441V43.6886ZM46.8912 41.5729V34.2048C46.8912 32.0637 45.6091 31.5278 44.4785 31.5278C42.3717 31.5278 41.0279 33.3641 41.0279 36.8818C41.0279 40.6027 42.7673 42.1596 44.9975 42.1596C45.7298 42.1596 46.3105 41.9818 46.8912 41.5729Z" fill="#DBEFEE"/>
    <path d="M62.2208 34.8932C62.9839 33.0569 63.5029 31.9114 64.5409 30.9412H61.1828C61.3652 31.2993 61.4885 31.9876 61.4885 32.7775C61.4885 33.4404 61.396 34.1541 61.1519 34.7662L58.5261 41.319L56.0826 34.7662C55.8077 34.0271 55.6844 33.2118 55.6844 32.4727C55.6844 31.8098 55.7769 31.2485 55.9284 30.9437H51.134C52.1104 31.9622 52.5986 33.0594 53.3334 34.8957L56.5708 43.1807H57.6499C56.7789 44.6995 55.3735 45.9034 53.5929 45.9034C52.8812 45.9034 52.1669 45.6901 51.4449 45.4412C50.8129 45.2228 50.1114 45.431 49.7106 45.9619L49.1094 46.7568C49.8288 47.2394 50.6536 47.5315 51.4989 47.6509C53.2049 47.8896 54.9213 47.3588 56.2753 46.3276C57.6756 45.2609 58.5543 43.7293 59.2224 42.1419C59.6026 41.2377 59.9726 40.3259 60.3477 39.4192C60.7974 38.3347 61.2444 37.2502 61.6941 36.1682C61.8688 35.744 62.0435 35.3199 62.2208 34.8957V34.8932Z" fill="#DBEFEE"/>
    <path d="M8.75893 49.8426L8.29645 50.922C7.99583 51.6281 7.16079 51.9227 6.45936 51.6002C6.02257 51.3995 5.60633 51.3208 5.28516 51.3208C3.66647 51.3208 3.42238 53.3095 3.42238 55.603V58.6635C3.42238 60.0401 3.48405 61.2135 4.18548 62.6917H0.184994C0.855595 61.2135 0.91726 60.0401 0.91726 58.6635V55.4252C0.91726 53.7438 0.704003 51.9075 0 50.7341C0.945523 50.4293 1.95528 50.0458 2.77747 49.6902C3.05239 50.2007 3.41981 51.3462 3.41981 52.0853V52.1869C4.09041 50.0712 5.22093 49.713 6.96038 49.713C7.3869 49.713 8.41978 49.7638 8.75636 49.84L8.75893 49.8426Z" fill="#DBEFEE"/>
    <path d="M40.2369 60.3705C40.2369 61.5439 38.8932 62.9713 36.8171 62.9713C34.8618 62.9713 34.0987 61.6709 34.0987 59.5552V50.6835H32.4492L32.5725 49.9444H34.0987C34.0987 49.0783 34.0371 48.1411 33.9163 47.1226C34.8336 46.8432 35.6866 46.4851 36.6039 46.0508V49.9444H40.1753L40.0237 50.6835H36.6039V59.2758C36.6039 59.7355 36.6039 61.0867 38.1609 61.0867C38.7724 61.0867 39.3222 60.8835 40.2369 60.373V60.3705Z" fill="#DBEFEE"/>
    <path d="M41.1758 56.2914C41.1758 52.314 43.6501 49.6877 47.2215 49.6877C51.0678 49.6877 53.0847 52.7203 53.0847 56.3422C53.0847 60.2942 50.6413 62.9712 47.0391 62.9712C43.1619 62.9712 41.1758 59.8853 41.1758 56.2914ZM50.243 56.9035C50.243 53.5636 49.2975 50.4802 46.8849 50.4802C45.0529 50.4802 43.9841 52.2657 43.9841 55.758C43.9841 59.2503 44.9604 62.1813 47.3422 62.1813C49.0817 62.1813 50.243 60.5253 50.243 56.9035Z" fill="#DBEFEE"/>
    <path d="M63.8826 49.8427L63.4201 50.9247C63.1169 51.6308 62.2845 51.9254 61.583 51.6028C61.1462 51.4022 60.73 51.3235 60.4063 51.3235C58.7876 51.3235 58.5435 53.3122 58.5435 55.6056V58.6662C58.5435 60.0428 58.6051 61.2162 59.3066 62.6944H55.3061C55.9767 61.2162 56.0384 60.0428 56.0384 58.6662V55.4279C56.0384 53.7465 55.8251 51.9102 55.1211 50.7368C56.0666 50.432 57.0764 50.0485 57.8986 49.6929C58.1735 50.2034 58.5409 51.3489 58.5409 52.0905V52.1921C59.2115 50.0764 60.342 49.7183 62.084 49.7183C62.5106 49.7183 63.5434 49.7691 63.88 49.8453L63.8826 49.8427Z" fill="#DBEFEE"/>
    <path d="M65.5922 56.4387C65.844 59.1893 67.234 60.9571 70.456 60.9571C71.8614 60.9571 72.7144 60.6269 73.8141 59.8599C73.5083 61.62 71.8897 62.9966 69.1738 62.9966C65.5099 62.9966 62.9766 60.3958 62.9766 56.4692C62.9766 53.0023 64.8702 49.6877 69.0531 49.6877C72.5962 49.6877 73.9991 51.905 73.9991 54.3535V54.8208L65.5922 56.4387ZM71.404 54.3052C71.404 51.6536 70.3044 50.4294 68.7165 50.4294C66.7021 50.4294 65.5408 52.3165 65.5408 55.4761V55.5523" fill="#DBEFEE"/>
    <path d="M27.1723 55.3871L25.6693 54.9249C25.0886 54.7471 24.0197 54.3254 23.3903 53.4797C23.0819 53.0631 22.9329 52.5729 22.9869 52.1336C23.0562 51.5646 23.4648 51.0262 24.0531 50.729C24.9678 50.2668 26.2474 50.3125 27.0953 50.8382C27.4344 51.0465 27.7145 51.3538 27.9072 51.7221C27.9175 51.7424 27.9509 51.8288 28.0048 52.0015C28.2309 52.6999 28.881 53.1698 29.6209 53.1698H30.9673C30.9827 53.1698 30.9955 53.1622 31.0058 53.152C31.0161 53.1393 31.0187 53.1266 31.0135 53.1114C30.4483 50.9068 28.5804 49.5886 26.0136 49.5886C23.1796 49.5886 21.3502 51.1075 21.3502 53.4568C21.3502 55.8062 23.1744 56.7053 25.1451 57.2463L26.5197 57.6323L26.7227 57.6908C27.5089 57.9168 28.4005 58.1733 28.8835 58.8515C29.3974 59.5728 29.3486 60.6243 28.7705 61.2973C28.3157 61.8256 27.5757 62.1304 26.7921 62.1228C25.8645 62.1101 24.9833 61.7317 24.4899 61.1373C24.251 60.8503 24.0634 60.5074 23.917 60.0909C23.6703 59.3925 23.0228 58.9226 22.3008 58.9226H20.9571C20.9442 58.9226 20.9288 58.9277 20.9211 58.9404C20.9134 58.9505 20.9083 58.9658 20.9108 58.9785C21.3682 61.4777 23.5855 63.093 26.5608 63.093C29.346 63.093 31.1471 61.5945 31.1471 59.2782C31.1471 56.7764 29.1816 55.984 27.1723 55.3871Z" fill="#DBEFEE"/>
    <path d="M10.9554 56.4387C11.2072 59.1893 12.5973 60.9571 15.8192 60.9571C17.2247 60.9571 18.0777 60.6269 19.1774 59.8599C18.8716 61.62 17.2529 62.9966 14.5371 62.9966C10.8732 62.9966 8.33984 60.3958 8.33984 56.4692C8.33984 53.0023 10.2335 49.6877 14.4164 49.6877C17.9595 49.6877 19.3624 51.905 19.3624 54.3535V54.8208L10.9554 56.4387ZM16.7673 54.3052C16.7673 51.6536 15.6676 50.4294 14.0798 50.4294C12.0654 50.4294 10.9041 52.3165 10.9041 55.4761V55.5523" fill="#DBEFEE"/>
    <path d="M46.0976 11.2903C45.7738 11.5392 45.5143 11.8313 45.3961 12.4586C45.2959 12.9818 45.2522 13.6803 44.9953 14.2111C44.5303 15.1687 43.7081 15.4861 43.3586 15.5801C41.5755 15.989 39.335 13.9013 38.1326 12.8701C37.1793 12.0523 36.2004 11.2547 35.0622 10.7011C33.9265 10.1474 32.7035 9.8121 31.4445 9.68511C30.1547 9.55558 28.5026 9.71813 27.1075 10.249C27.0227 14.1451 29.6563 17.5333 33.1018 18.986C36.6321 20.4719 40.7893 19.7886 43.6515 17.264C45.4552 15.6715 46.7219 13.3069 46.9043 10.9042C46.9043 10.9042 46.5472 10.9474 46.1027 11.2903H46.0976ZM30.0982 15.6334C28.9574 14.2924 28.2174 12.6034 28.0299 10.8661C29.0576 10.5537 30.2678 10.5309 31.3135 10.6223C32.593 10.7341 33.8597 11.115 34.9825 11.7297C36.149 12.3672 37.1305 13.2663 38.1351 14.1222C39.1423 14.9807 40.2214 15.8595 41.4984 16.2887C41.5061 16.2887 41.5138 16.2938 41.519 16.2938C40.4193 16.6849 37.8294 17.0862 36.0437 16.4716C34.019 15.7731 33.0118 14.5286 32.4183 13.7641C32.1614 13.4365 31.7015 13.2104 31.3058 13.2714C31.8376 14.8334 33.5129 16.596 35.7739 17.2996C37.372 17.7974 39.9106 17.9625 41.9301 17.3961C41.1053 17.9346 40.1726 18.3206 39.222 18.5594C35.8869 19.3975 32.313 18.2292 30.1033 15.6334H30.0982Z" fill="#DBEFEE"/>
    <path d="M28.6059 7.43485C28.7061 6.91164 28.7498 6.21318 29.0067 5.68235C29.4717 4.72482 30.2939 4.40734 30.6434 4.31337C32.4265 3.90445 34.667 5.99221 35.8694 7.02339C36.8227 7.84122 37.8016 8.63874 38.9398 9.19242C40.0755 9.74611 41.2985 10.0814 42.5575 10.2084C43.8473 10.3379 45.4994 10.1753 46.8945 9.64452C46.9793 5.74838 44.3457 2.36022 40.9002 0.907424C37.3699 -0.57839 33.2127 0.104831 30.3505 2.62944C28.5468 4.22193 27.2801 6.58654 27.0977 8.98924C27.0977 8.98924 27.4548 8.94606 27.8993 8.60318C28.223 8.35427 28.4825 8.06219 28.6007 7.43485H28.6059ZM43.9038 4.26003C45.0446 5.60107 45.7871 7.29007 45.9721 9.02733C44.9444 9.33974 43.7342 9.3626 42.6885 9.27116C41.409 9.15941 40.1423 8.77843 39.0195 8.16378C37.853 7.52628 36.8715 6.62717 35.8669 5.77124C34.8597 4.91277 33.7805 4.03398 32.5036 3.60475C32.4959 3.60475 32.4882 3.59967 32.483 3.59967C33.5827 3.20853 36.1726 2.80723 37.9583 3.42188C39.983 4.12034 40.9902 5.36487 41.5837 6.12936C41.8406 6.457 42.3005 6.68305 42.6962 6.62209C42.1644 5.06008 40.4891 3.29743 38.2281 2.59389C36.63 2.09608 34.0914 1.93098 32.0719 2.49737C32.8967 1.95892 33.8294 1.57287 34.78 1.33412C38.1151 0.495968 41.689 1.6643 43.8987 4.26003H43.9038Z" fill="#DBEFEE"/>
</svg>
