<svg width="42" height="46" viewBox="0 0 42 46" fill="none" xmlns="http://www.w3.org/2000/svg">
<path d="M41.1921 25.0512C41.1921 29.2195 41.1921 33.3877 41.1921 37.556C41.1921 40.8485 39.1955 43.7558 36.1832 45.0168C35.1324 45.4721 34.0465 45.6473 32.9256 45.6473C24.7293 45.6473 16.4978 45.6473 8.30147 45.6473C5.81453 45.6473 3.67787 44.7365 2.03158 42.8801C0.700547 41.3739 0.0350273 39.6226 0 37.626C0 29.2895 0 20.9881 0 12.6516C0 9.28894 1.96153 6.38168 5.14901 5.08567C6.23486 4.63031 6.26988 4.66534 6.26988 5.82124C6.26988 6.45173 6.26988 7.0472 6.26988 7.67769C6.33994 9.39402 7.74103 10.62 9.45737 10.4098C10.7183 10.2697 11.8392 9.07878 11.8742 7.78277C11.9093 6.97714 11.8742 6.17151 11.8742 5.36589C11.8742 4.4902 11.8742 4.4902 12.7499 4.4902C15.9024 4.4902 19.0198 4.4902 22.1723 4.4902C24.3089 4.4902 26.4456 4.4902 28.5472 4.4902C29.1777 4.4902 29.2128 4.52523 29.2128 5.15573C29.2128 5.96135 29.2128 6.80201 29.2128 7.60763C29.2478 9.39403 30.859 10.69 32.6104 10.3398C33.6612 10.1296 34.677 9.14883 34.7821 8.06299C34.8521 7.1873 34.8521 6.27659 34.8521 5.36589C34.8521 4.73539 34.9572 4.66534 35.5527 4.87551C37.5142 5.54102 39.0204 6.76698 40.0712 8.58839C40.8418 9.91943 41.122 11.3906 41.122 12.9318C41.1571 17.03 41.1921 21.0231 41.1921 25.0512ZM20.596 16.3995C20.596 16.3645 20.596 16.3645 20.596 16.3995C19.9655 16.3995 19.3351 16.3995 18.7046 16.3995C14.0459 16.3995 9.35228 16.3995 4.69366 16.3995C4.13322 16.3995 4.02814 16.4695 4.02814 17.03C4.02814 23.8603 4.02814 30.7256 4.02814 37.556C4.02814 39.8327 5.81453 41.5841 8.0913 41.6191C16.3928 41.6191 24.7293 41.6191 33.0307 41.6191C35.2024 41.6191 37.0939 39.9028 37.1289 37.556C37.1639 30.7256 37.1289 23.9303 37.1289 17.1C37.1289 16.4695 37.0589 16.3995 36.4284 16.3995C31.1392 16.3995 25.8501 16.3995 20.596 16.3995ZM20.0706 9.84938C20.0356 9.53413 20.0356 9.21889 20.0356 8.93867C20.0356 7.9579 20.0356 7.95791 19.0548 8.02796H19.0198C18.9147 8.13304 18.6695 8.27315 18.6695 8.37823C18.6695 9.46408 18.6695 10.5849 18.7396 11.6708C18.7746 12.0211 18.9848 12.4414 19.23 12.7216C19.8605 13.4922 20.7712 13.4572 21.6118 13.247C22.3824 13.0719 22.8378 12.4064 22.8728 11.6708C22.9779 10.5499 22.9429 9.42905 22.9429 8.3432C22.9429 8.23812 22.7677 8.09802 22.6276 8.02796C22.4875 7.95791 22.3474 8.02796 22.2073 7.99293C21.787 7.9579 21.6469 8.09802 21.6469 8.55337C21.6819 9.49911 21.6469 10.4448 21.6118 11.3556C21.5768 11.8459 21.2265 12.1612 20.8412 12.1612C20.4209 12.1612 20.1057 11.8109 20.0706 11.3556C20.0706 10.8652 20.0706 10.3748 20.0706 9.84938ZM24.1338 10.585C24.1338 11.3205 24.1338 12.0561 24.1338 12.7917C24.1338 13.1069 24.2389 13.3171 24.5891 13.3171C25.4298 13.3171 26.2705 13.3171 27.1111 13.3171C27.5314 13.3171 27.5314 13.0369 27.5314 12.7566C27.5314 12.4764 27.5665 12.1262 27.1111 12.1262C26.7959 12.1262 26.4806 12.1262 26.1304 12.1262C25.6049 12.1262 25.5699 12.0911 25.5699 11.5307C25.5699 10.69 25.5699 9.81435 25.5699 8.9737C25.5699 7.99293 25.5699 7.99293 24.5891 8.02796C24.2739 8.02796 24.1338 8.16807 24.1338 8.48332C24.1338 9.18386 24.1338 9.88441 24.1338 10.585ZM16.1476 9.91943C16.1125 10.4799 16.1476 11.0753 16.1125 11.6358C16.0775 12.1262 15.6922 12.3013 15.2719 12.0561C14.7465 11.7759 14.6064 11.7759 14.2211 12.2312C14.151 12.3363 14.116 12.5815 14.186 12.6516C14.7115 13.3521 15.447 13.4572 16.2527 13.3171C16.8481 13.212 17.4086 12.6866 17.4786 12.0211C17.5487 10.9703 17.5487 9.95446 17.5837 8.90364C17.5837 7.99293 17.5487 7.95791 16.638 8.02796H16.6029C16.3227 8.02796 16.1826 8.16807 16.1826 8.44829C16.1476 8.93867 16.1476 9.42905 16.1476 9.91943Z" fill="#000"/>
<path d="M7.35446 4.63037C7.35446 3.68463 7.38949 2.73889 7.35446 1.82819C7.31943 0.812394 8.09003 0.0417902 9.0708 0.00676288C10.0516 -0.0282644 10.7871 0.742338 10.8222 1.79316C10.8572 3.71966 10.8222 5.68119 10.8222 7.60769C10.8222 8.58845 10.0516 9.35905 9.10582 9.35905C8.16009 9.35905 7.42452 8.58845 7.38949 7.60769C7.31943 6.59189 7.35446 5.61113 7.35446 4.63037Z" fill="#000"/>
<path d="M30.3671 4.66534C30.3671 3.68458 30.3671 2.73884 30.3671 1.75808C30.3671 0.847367 30.8925 0.251905 31.7682 0.0417413C32.5038 -0.133395 33.2744 0.251906 33.6597 1.02251C33.7648 1.23267 33.7998 1.51288 33.7998 1.75808C33.7998 3.7196 33.7998 5.64611 33.7998 7.60763C33.7998 8.44829 33.3445 9.00872 32.5038 9.28894C31.9434 9.46408 31.1728 9.25392 30.7524 8.65845C30.5423 8.37823 30.4022 7.95791 30.3671 7.60763C30.3321 6.62687 30.3671 5.6461 30.3671 4.66534Z" fill="#000"/>
<path d="M20.07 9.84946C20.07 10.3398 20.035 10.8652 20.07 11.3556C20.1051 11.846 20.4203 12.1613 20.8406 12.1613C21.261 12.1613 21.6112 11.846 21.6112 11.3556C21.6463 10.4099 21.6463 9.46416 21.6463 8.55345C21.6463 8.13312 21.7864 7.95798 22.2067 7.99301C22.3468 7.99301 22.5219 7.95798 22.627 8.02804C22.7671 8.09809 22.9423 8.2382 22.9423 8.34328C22.9423 9.46415 22.9773 10.585 22.8722 11.6709C22.8022 12.4415 22.3818 13.072 21.6112 13.2471C20.7706 13.4573 19.8599 13.4923 19.2294 12.7217C18.9842 12.4415 18.774 12.0211 18.739 11.6709C18.6689 10.585 18.6689 9.46416 18.6689 8.37831C18.6689 8.27323 18.8791 8.13312 19.0192 8.02804H19.0542C20.035 7.95798 20.035 7.95798 20.035 8.93874C20.035 9.25399 20.035 9.56924 20.07 9.84946Z" fill="white"/>
<path d="M24.1338 10.5849C24.1338 9.8844 24.1338 9.18385 24.1338 8.48331C24.1338 8.16806 24.2739 8.02795 24.5891 8.02795C25.5349 7.99292 25.5699 7.99292 25.5699 8.97369C25.5699 9.81434 25.5699 10.69 25.5699 11.5307C25.5699 12.0911 25.6049 12.1261 26.1303 12.1261C26.4456 12.1261 26.7608 12.1261 27.1111 12.1261C27.5665 12.1261 27.5314 12.4764 27.5314 12.7566C27.5314 13.0369 27.5314 13.3521 27.1111 13.3171C26.2705 13.3171 25.4298 13.3171 24.5891 13.3171C24.2389 13.3171 24.1338 13.1069 24.1338 12.7917C24.1338 12.0561 24.1338 11.3205 24.1338 10.5849Z" fill="white"/>
<path d="M16.147 9.91946C16.147 9.42908 16.147 8.9387 16.147 8.48335C16.147 8.1681 16.2872 8.06301 16.5674 8.06301H16.6024C17.5131 7.99296 17.5481 8.02799 17.5481 8.9387C17.5481 9.98952 17.5481 11.0053 17.4431 12.0561C17.373 12.7216 16.8476 13.2471 16.2171 13.3521C15.4115 13.4922 14.6759 13.3872 14.1505 12.6866C14.0804 12.5815 14.1155 12.3363 14.1855 12.2663C14.5708 11.8109 14.7109 11.8109 15.2363 12.0912C15.6567 12.3363 16.077 12.1612 16.077 11.6708C16.147 11.0754 16.112 10.4799 16.147 9.91946Z" fill="white"/>
<path d="M32.1555 28.659C32.0504 30.2352 31.9103 31.8115 31.1397 33.2476C30.264 34.9639 28.8629 35.9096 26.9014 35.9096C24.9749 35.9096 23.5388 34.9989 22.6631 33.2826C21.7173 31.4261 21.5772 29.4646 21.7524 27.4681C21.8575 26.3122 22.0676 25.1913 22.6281 24.1405C23.5738 22.3541 25.0099 21.4784 27.0415 21.5134C29.2482 21.5485 30.7194 22.9145 31.4199 24.6659C31.9803 25.8918 32.0854 27.2579 32.1555 28.659ZM28.6528 28.659C28.6177 28.659 28.6177 28.659 28.5827 28.659C28.5477 27.9234 28.5126 27.1878 28.4776 26.4523C28.4426 26.137 28.3375 25.8218 28.2674 25.5065C28.0923 24.7359 27.5669 24.3156 26.8664 24.3506C26.2709 24.3857 25.8155 24.771 25.6404 25.4715C25.185 27.5732 25.185 29.6748 25.6404 31.7414C25.8506 32.7222 26.5861 33.1425 27.3918 32.8623C27.9522 32.6521 28.1624 32.1617 28.2674 31.6713C28.4076 30.6906 28.5126 29.6748 28.6528 28.659Z" fill="#000"/>
<path d="M17.3387 28.5189C18.1443 28.7641 18.7748 29.1494 19.2652 29.7799C20.4912 31.3911 19.9658 33.8781 18.1443 34.9639C16.7082 35.8046 15.167 36.0147 13.5558 35.8396C12.1897 35.6995 10.9988 35.2791 9.94796 34.3684C9.52763 33.9831 9.52763 33.9131 9.84288 33.4577C10.2282 32.9323 10.6135 32.4419 10.9637 31.9165C11.1739 31.6013 11.349 31.6713 11.5942 31.8465C12.0846 32.1617 12.575 32.477 13.1354 32.6871C13.836 32.9673 14.6066 32.9673 15.3071 32.6521C15.8676 32.4069 16.1128 32.0566 16.0777 31.4261C16.0427 30.8657 15.7625 30.3753 15.202 30.2352C14.5365 30.0951 13.871 29.99 13.1705 29.92C12.7501 29.8849 12.575 29.7448 12.61 29.3245C12.6451 28.7991 12.61 28.2387 12.61 27.6782C12.61 27.363 12.7501 27.2579 13.0304 27.2229C13.6608 27.1178 14.3264 27.0127 14.9218 26.7675C15.4823 26.5573 15.6924 25.9269 15.5523 25.2964C15.4122 24.7359 15.0269 24.4207 14.3614 24.3857C13.5207 24.3156 12.8552 24.5958 12.1897 25.1212C11.6643 25.5416 11.6643 25.5416 11.244 25.0161C10.8587 24.5258 10.4734 24.0704 10.053 23.6151C9.84288 23.3699 9.84287 23.1947 10.0881 22.9846C11.1389 22.1789 12.2948 21.5835 13.6258 21.4784C14.8518 21.4083 16.0777 21.4434 17.2336 22.0038C18.5296 22.6343 19.2302 23.6501 19.3353 25.0512C19.4403 26.4523 18.7748 27.4681 17.5489 28.1336C17.5839 28.2036 17.5138 28.3437 17.3387 28.5189Z" fill="#000"/>
<rect x="14.0107" y="7.70605" width="13.6606" height="6.30491" fill="#000"/>
</svg>
