<svg width="51" height="51" viewBox="0 0 51 51" fill="none" xmlns="http://www.w3.org/2000/svg">
<path d="M34.4648 0C33.9148 0 33.4688 0.446051 33.4688 0.996094V5.57812C33.4688 6.12817 33.9148 6.57422 34.4648 6.57422C35.0149 6.57422 35.4609 6.12817 35.4609 5.57812V0.996094C35.4609 0.446051 35.0149 0 34.4648 0ZM11.5547 31.0781C11.0048 31.0781 10.5586 31.5244 10.5586 32.0742C10.5586 32.6241 11.0048 33.0703 11.5547 33.0703C12.1045 33.0703 12.5508 32.6241 12.5508 32.0742C12.5508 31.5244 12.1045 31.0781 11.5547 31.0781Z" fill="#000"/>
<path d="M48.4102 29.0859C48.4102 26.889 46.6228 25.1016 44.4258 25.1016H36.9897C38.1409 22.1528 38.6069 18.682 38.5171 15.5925C38.4999 15.0029 38.4773 14.6619 38.4467 14.4472C38.3952 12.295 36.628 10.5586 34.4648 10.5586C32.2679 10.5586 30.4805 12.346 30.4805 14.543V15.5391C30.4805 21.839 22.3908 25.3786 16.2857 26.8964C15.8241 25.8412 14.7705 25.1016 13.5469 25.1016H3.58594C3.03589 25.1016 2.58984 25.5476 2.58984 26.0977V50.0039C2.58984 50.5539 3.03589 51 3.58594 51H13.5469C14.7623 51 15.8099 50.2702 16.2763 49.2261C16.7459 49.3468 17.2152 49.4686 17.6842 49.5914C21.1621 50.4998 23.0779 51 27.7372 51H38.4492C40.6462 51 42.4336 49.2126 42.4336 47.0156C42.4345 46.2266 42.1996 45.4552 41.7592 44.8005C43.298 44.2623 44.4258 42.7921 44.4258 41.0391C44.4258 40.2229 44.1831 39.4584 43.7588 38.8216C45.2908 38.2825 46.418 36.8156 46.418 35.0625C46.4188 34.2734 46.184 33.5021 45.7436 32.8474C47.2824 32.3092 48.4102 30.839 48.4102 29.0859ZM14.543 48.0117C14.543 48.561 14.0961 49.0078 13.5469 49.0078H4.58203V27.0938H13.5469C14.0961 27.0938 14.543 27.5406 14.543 28.0898V48.0117ZM44.4258 31.0781H39.4453C38.8953 31.0781 38.4492 31.5242 38.4492 32.0742C38.4492 32.6243 38.8953 33.0703 39.4453 33.0703H42.4336C43.5321 33.0703 44.4258 33.964 44.4258 35.0625C44.4258 36.1628 43.5339 37.0547 42.4336 37.0547H37.4531C36.9031 37.0547 36.457 37.5007 36.457 38.0508C36.457 38.6008 36.9031 39.0469 37.4531 39.0469H40.4414C41.5268 39.0469 42.4336 39.914 42.4336 41.0391C42.4336 42.1393 41.5417 43.0312 40.4414 43.0312H35.4609C34.9109 43.0312 34.4648 43.4773 34.4648 44.0273C34.4648 44.5774 34.9109 45.0234 35.4609 45.0234H38.4492C39.5477 45.0234 40.4414 45.9171 40.4414 47.0156C40.4414 48.1141 39.5477 49.0078 38.4492 49.0078H27.7372C23.3338 49.0078 21.6139 48.5587 18.1877 47.6639C17.6373 47.5196 17.0864 47.377 16.5352 47.2361V28.8892C23.7437 27.1721 32.4727 22.981 32.4727 15.5391V14.543C32.4727 13.4445 33.3664 12.5508 34.4648 12.5508C35.5613 12.5508 36.4549 13.4431 36.457 14.5399V14.543C36.457 14.9759 36.9973 20.2887 34.8308 25.1016H31.4766C30.9265 25.1016 30.4805 25.5476 30.4805 26.0977C30.4805 26.6477 30.9265 27.0938 31.4766 27.0938H44.4258C45.5243 27.0938 46.418 27.9874 46.418 29.0859C46.418 30.1862 45.5261 31.0781 44.4258 31.0781Z" fill="#000"/>
<path d="M11.5547 35.0625C11.0046 35.0625 10.5586 35.5086 10.5586 36.0586V44.0273C10.5586 44.5774 11.0046 45.0234 11.5547 45.0234C12.1047 45.0234 12.5508 44.5774 12.5508 44.0273V36.0586C12.5508 35.5086 12.1047 35.0625 11.5547 35.0625ZM26.4961 12.5508H22.5117C21.9617 12.5508 21.5156 12.9968 21.5156 13.5469C21.5156 14.0969 21.9617 14.543 22.5117 14.543H26.4961C27.0461 14.543 27.4922 14.0969 27.4922 13.5469C27.4922 12.9968 27.0461 12.5508 26.4961 12.5508ZM46.418 12.5508H42.4336C41.8836 12.5508 41.4375 12.9968 41.4375 13.5469C41.4375 14.0969 41.8836 14.543 42.4336 14.543H46.418C46.968 14.543 47.4141 14.0969 47.4141 13.5469C47.4141 12.9968 46.968 12.5508 46.418 12.5508ZM43.621 4.39069C43.232 4.00181 42.6014 4.00181 42.2123 4.39069L39.3954 7.20754C39.0064 7.59651 39.0064 8.22724 39.3954 8.61631C39.7846 9.00529 40.415 9.00519 40.8042 8.61631L43.621 5.79946C44.01 5.41049 44.01 4.77976 43.621 4.39069ZM29.5343 7.20754L26.7174 4.39069C26.3284 4.00181 25.6978 4.00181 25.3087 4.39069C24.9197 4.77966 24.9197 5.41039 25.3087 5.79946L28.1255 8.61631C28.5148 9.00529 29.1452 9.00519 29.5343 8.61631C29.9233 8.22734 29.9233 7.59661 29.5343 7.20754Z" fill="#000"/>
</svg>
