<?xml version="1.0" encoding="UTF-8" ?>
<!DOCTYPE svg PUBLIC "-//W3C//DTD SVG 1.1//EN" "http://www.w3.org/Graphics/SVG/1.1/DTD/svg11.dtd">
<svg width="625pt" height="171pt" viewBox="0 0 625 171" version="1.1" xmlns="http://www.w3.org/2000/svg">
<g id="#212a32ff">
<path fill="#212a32" opacity="1.00" d=" M 478.95 24.34 C 483.08 23.89 487.94 23.33 491.28 26.42 C 493.90 28.22 495.19 31.17 496.51 33.94 C 497.75 40.91 492.85 47.75 486.18 49.61 C 483.01 49.92 479.81 49.62 476.86 48.39 C 472.88 45.26 468.76 40.51 470.08 35.05 C 470.53 31.22 473.28 28.25 476.08 25.84 C 477.04 25.37 478.02 24.89 478.95 24.34 Z" />
<path fill="#212a32" opacity="1.00" d=" M 528.03 25.88 C 534.11 23.68 540.70 23.86 547.06 24.24 C 549.00 24.30 550.84 24.94 552.64 25.62 C 552.57 32.28 552.79 38.94 552.49 45.60 C 547.97 43.91 541.71 43.13 538.28 47.26 C 536.41 49.38 535.71 52.40 535.68 55.15 C 540.89 56.61 546.60 54.50 551.77 56.34 C 551.54 62.46 551.69 68.59 551.65 74.71 C 547.09 74.86 542.53 74.65 537.97 74.79 C 536.81 74.79 535.21 75.48 535.62 76.91 C 535.57 91.77 535.65 106.63 535.59 121.48 C 527.86 121.48 520.13 121.47 512.40 121.49 C 512.37 106.13 512.35 90.77 512.41 75.41 C 509.38 75.38 506.28 75.55 503.39 74.50 C 503.47 68.50 503.57 62.48 503.31 56.48 C 506.11 55.04 509.35 55.75 512.37 55.57 C 511.90 49.50 513.24 43.54 515.55 37.95 C 517.56 33.70 521.14 30.49 524.76 27.61 C 526.03 27.42 527.23 26.94 528.03 25.88 Z" />
<path fill="#212a32" opacity="1.00" d=" M 402.97 27.92 C 403.36 27.79 404.14 27.52 404.52 27.39 C 402.59 30.54 401.66 34.12 400.34 37.52 C 396.60 45.26 393.69 53.36 390.23 61.22 C 389.03 63.81 388.31 66.58 387.50 69.30 C 386.32 70.74 386.05 72.61 385.50 74.32 C 382.98 76.75 382.59 80.37 381.49 83.52 C 381.08 84.25 380.70 85.00 380.34 85.75 C 388.36 86.72 396.47 85.66 404.51 86.46 C 407.14 86.21 407.83 83.37 408.86 81.41 C 410.63 76.43 412.82 71.60 414.56 66.61 C 418.02 61.94 418.90 56.04 421.48 50.93 C 425.06 43.21 427.74 35.08 431.67 27.53 L 431.84 27.19 C 428.24 36.19 423.87 44.95 421.13 54.23 C 418.98 58.02 416.95 61.98 416.11 66.29 L 415.37 66.19 C 414.84 70.26 412.60 73.75 411.50 77.64 C 409.66 80.41 408.10 83.41 407.68 86.77 C 405.13 87.06 402.56 87.22 400.01 87.05 C 392.99 86.64 385.95 87.25 378.93 86.75 C 379.55 82.43 383.14 79.38 383.79 75.08 C 385.19 71.14 386.92 67.33 388.90 63.65 C 392.93 53.91 397.11 44.21 400.77 34.34 C 401.97 32.37 402.84 30.25 402.97 27.92 Z" />
<path fill="#212a32" opacity="1.00" d=" M 435.56 26.49 C 443.22 26.50 450.89 26.53 458.56 26.47 C 458.78 58.14 458.63 89.82 458.67 121.49 C 450.95 121.48 443.22 121.46 435.50 121.50 C 435.50 89.83 435.38 58.16 435.56 26.49 Z" />
<path fill="#212a32" opacity="1.00" d=" M 246.97 55.98 C 251.02 55.82 254.92 54.36 259.00 54.56 C 267.68 54.99 276.63 57.56 282.83 63.94 C 279.53 61.20 275.44 59.75 271.74 57.65 C 263.56 54.64 254.55 55.18 246.19 57.20 C 246.38 56.89 246.77 56.28 246.97 55.98 Z" />
<path fill="#212a32" opacity="1.00" d=" M 311.18 61.96 C 320.30 54.94 333.17 52.57 344.08 56.58 C 337.50 56.06 330.85 54.60 324.29 56.24 C 319.55 57.12 315.25 59.46 311.18 61.96 Z" />
<path fill="#212a32" opacity="1.00" d=" M 563.51 65.56 C 573.68 54.11 591.50 51.07 605.18 57.60 C 613.65 61.54 620.15 69.48 622.16 78.63 C 624.01 83.76 623.51 89.26 623.55 94.61 C 608.46 94.62 593.38 94.59 578.30 94.62 C 578.34 99.19 581.95 102.99 586.15 104.29 C 589.33 104.66 592.63 104.74 595.79 104.10 C 597.32 103.05 598.59 101.65 599.87 100.31 C 605.25 100.01 609.82 103.46 614.86 104.84 C 616.53 105.44 618.22 105.99 619.92 106.54 C 619.85 107.46 619.72 109.31 619.65 110.23 C 614.64 116.22 607.76 120.94 599.93 122.12 C 594.05 124.05 587.77 123.64 581.79 122.47 C 579.89 121.76 577.87 121.50 575.88 121.30 C 568.64 118.21 562.45 112.97 558.48 106.14 C 558.41 105.61 558.28 104.55 558.21 104.02 C 557.91 103.78 557.31 103.30 557.01 103.06 C 556.07 98.41 555.03 93.73 554.72 88.99 C 555.00 84.79 555.79 80.63 556.77 76.53 C 558.86 72.78 560.51 68.71 563.51 65.56 M 582.84 74.08 C 580.21 75.63 579.12 78.62 577.79 81.19 C 585.37 81.41 592.95 81.29 600.54 81.27 C 600.59 78.04 597.84 75.94 595.98 73.65 C 595.24 73.59 594.51 73.52 593.79 73.46 C 590.70 70.22 586.16 72.46 582.84 74.08 Z" />
<path fill="#212a32" opacity="1.00" d=" M 55.07 57.21 C 57.60 55.23 61.05 56.37 64.00 56.12 C 69.86 56.57 75.83 55.56 81.64 56.36 C 82.02 59.84 78.99 62.31 78.50 65.60 C 78.07 65.98 77.20 66.75 76.76 67.13 C 76.35 71.70 72.95 75.12 72.10 79.54 C 71.39 83.06 68.51 85.67 68.06 89.31 C 63.26 99.10 59.53 109.41 55.20 119.42 C 54.58 123.89 51.35 127.34 50.16 131.65 C 49.24 135.08 47.65 138.25 46.46 141.59 C 45.77 143.07 45.34 144.64 45.02 146.24 C 44.65 146.42 43.90 146.77 43.53 146.95 C 45.63 138.51 50.70 131.29 53.13 122.97 C 55.69 117.68 57.66 112.14 60.07 106.77 C 62.33 101.11 65.18 95.63 66.52 89.64 C 69.37 86.78 69.36 82.46 71.44 79.16 C 73.03 76.52 73.77 73.52 74.48 70.56 C 76.39 68.26 77.37 65.41 77.84 62.49 C 78.63 60.93 79.46 59.39 80.24 57.83 C 73.69 55.81 66.68 57.41 59.93 56.89 C 56.93 56.25 56.31 59.50 55.41 61.53 C 51.44 68.69 49.34 76.67 46.00 84.11 C 44.59 87.03 43.99 90.21 43.35 93.36 C 42.23 93.37 41.10 93.39 39.98 93.41 C 39.45 88.63 36.68 84.58 35.50 79.99 C 37.70 83.87 38.39 88.46 40.99 92.11 C 42.18 90.58 43.64 89.21 44.45 87.42 C 47.69 78.96 51.04 70.53 54.37 62.10 C 54.89 60.55 55.97 58.89 55.07 57.21 Z" />
<path fill="#212a32" opacity="1.00" d=" M 471.43 56.42 C 479.41 56.22 487.42 56.03 495.39 56.52 C 495.17 77.02 495.33 97.52 495.31 118.01 C 495.31 119.27 495.07 120.47 494.59 121.63 C 486.90 121.28 479.20 121.62 471.51 121.43 C 471.49 99.76 471.64 78.09 471.43 56.42 Z" />
<path fill="#212a32" opacity="1.00" d=" M 345.92 57.17 C 356.28 60.62 363.72 69.62 367.25 79.71 C 368.67 85.27 368.74 91.25 367.66 96.89 C 367.24 100.96 364.72 104.49 362.81 108.01 C 358.65 114.77 351.81 119.23 344.73 122.46 C 335.40 124.65 325.19 124.67 316.37 120.54 C 313.78 118.96 311.45 117.00 309.11 115.09 C 313.25 117.92 317.74 120.54 322.71 121.53 C 324.36 122.40 326.09 123.33 328.03 123.14 C 333.44 123.09 339.10 123.86 344.14 121.40 C 351.58 119.98 357.59 114.66 361.99 108.75 C 365.26 104.50 366.15 99.12 367.39 94.05 C 367.98 90.78 367.94 87.38 367.21 84.13 C 366.02 79.82 365.56 75.18 362.91 71.43 C 359.09 64.83 352.69 60.34 345.92 57.17 Z" />
<path fill="#212a32" opacity="1.00" d=" M 208.03 58.17 C 212.33 60.40 214.65 64.84 217.18 68.75 C 219.63 76.22 218.72 84.23 218.84 91.99 C 217.91 102.21 219.53 112.47 218.69 122.68 C 211.27 123.18 203.84 121.78 196.39 122.42 L 196.23 121.60 C 203.19 121.67 210.16 121.39 217.12 121.82 C 217.58 120.64 218.30 119.46 218.12 118.13 C 218.02 104.75 218.10 91.37 218.07 77.99 C 218.12 74.28 216.60 70.85 215.52 67.38 C 214.28 63.48 211.02 60.75 208.03 58.17 Z" />
<path fill="#212a32" opacity="1.00" d=" M 3.13 61.00 C 7.43 68.95 9.55 77.98 14.39 85.63 C 16.80 92.06 19.14 98.54 22.41 104.61 C 23.89 109.75 26.07 114.64 28.26 119.51 C 31.02 124.67 26.21 129.71 24.35 134.36 C 24.59 133.74 25.06 132.50 25.30 131.88 C 25.28 127.53 30.26 124.17 27.99 119.83 C 25.41 113.57 22.72 107.35 19.79 101.25 C 17.71 94.96 14.01 89.34 12.21 82.93 C 9.30 75.58 5.94 68.40 3.13 61.00 Z" />
<path fill="#212a32" opacity="1.00" d=" M 399.12 99.13 C 402.73 103.37 401.36 109.22 401.19 114.28 C 397.99 118.24 394.26 122.21 389.07 123.34 C 385.42 123.65 381.24 123.79 378.26 121.29 C 382.71 122.72 387.65 123.70 392.13 121.81 C 395.20 120.51 398.67 118.19 398.83 114.51 C 399.27 114.26 400.16 113.77 400.60 113.52 C 400.73 108.73 401.67 103.49 399.12 99.13 Z" />
<path fill="#212a32" opacity="1.00" d=" M 236.10 116.02 C 239.92 118.64 243.98 121.13 248.72 121.49 C 251.66 123.92 255.52 123.01 259.01 123.14 C 262.17 123.10 265.66 123.79 268.29 121.55 C 272.36 120.83 275.99 118.80 279.72 117.11 C 277.25 118.82 274.96 121.13 271.88 121.60 C 270.52 122.05 268.74 121.87 267.81 123.17 C 261.02 124.05 253.96 124.41 247.30 122.52 C 243.41 120.67 239.30 118.98 236.10 116.02 Z" />
</g>
<g id="#6a00dbff">
<path fill="#6a00db" opacity="1.00" d=" M 155.42 27.51 C 163.13 27.36 170.85 27.37 178.56 27.49 C 178.38 38.91 178.69 50.32 178.39 61.74 C 178.82 61.65 179.70 61.49 180.14 61.41 C 181.07 60.51 182.02 59.64 183.02 58.82 C 184.31 58.16 185.56 57.42 186.75 56.59 C 193.72 55.18 201.75 53.93 208.03 58.17 C 211.02 60.75 214.28 63.48 215.52 67.38 C 216.60 70.85 218.12 74.28 218.07 77.99 C 218.10 91.37 218.02 104.75 218.12 118.13 C 218.30 119.46 217.58 120.64 217.12 121.82 C 210.16 121.39 203.19 121.67 196.23 121.60 L 195.37 121.60 C 195.41 108.68 195.44 95.76 195.34 82.85 C 194.03 80.51 192.83 77.64 190.11 76.67 C 188.36 76.41 186.60 76.51 184.85 76.50 C 182.44 77.43 180.84 79.44 179.66 81.64 C 179.54 83.12 179.33 84.61 178.69 85.98 C 178.43 97.85 178.61 109.74 178.61 121.62 C 170.89 121.72 163.16 121.73 155.43 121.60 C 155.48 90.24 155.51 58.87 155.42 27.51 Z" />
<path fill="#6a00db" opacity="1.00" d=" M 404.52 27.39 C 413.57 27.51 422.62 27.27 431.67 27.53 C 427.74 35.08 425.06 43.21 421.48 50.93 C 418.90 56.04 418.02 61.94 414.56 66.61 C 412.82 71.60 410.63 76.43 408.86 81.41 C 407.83 83.37 407.14 86.21 404.51 86.46 C 396.47 85.66 388.36 86.72 380.34 85.75 C 380.70 85.00 381.08 84.25 381.49 83.52 C 382.59 80.37 382.98 76.75 385.50 74.32 C 386.05 72.61 386.32 70.74 387.50 69.30 C 388.31 66.58 389.03 63.81 390.23 61.22 C 393.69 53.36 396.60 45.26 400.34 37.52 C 401.66 34.12 402.59 30.54 404.52 27.39 Z" />
<path fill="#6a00db" opacity="1.00" d=" M 96.96 56.77 C 101.21 56.05 105.71 54.10 109.96 55.20 C 115.91 55.24 121.04 58.42 125.52 62.03 C 125.52 60.18 125.51 58.33 125.50 56.48 C 132.86 56.37 140.22 56.45 147.57 56.43 C 147.65 78.15 147.52 99.88 147.64 121.60 C 145.41 121.68 143.10 121.42 140.99 122.31 C 138.02 122.19 134.75 120.77 131.97 122.40 C 130.07 121.11 127.59 121.82 125.43 121.61 C 125.49 120.10 125.54 118.59 125.58 117.08 C 122.04 118.06 119.94 121.65 116.20 122.30 C 111.42 124.43 105.99 123.36 100.93 123.30 C 99.07 122.28 97.02 121.74 95.03 121.07 C 87.97 117.39 81.54 111.36 79.35 103.52 C 79.15 103.52 78.75 103.52 78.55 103.52 C 78.13 100.99 77.78 98.40 76.67 96.06 C 76.31 91.67 76.29 87.26 76.67 82.88 C 77.21 81.61 77.57 80.29 77.85 78.94 L 78.12 78.09 C 78.29 77.02 78.64 76.01 79.19 75.07 C 82.22 66.76 89.02 60.40 96.96 56.77 M 99.72 84.03 C 99.00 86.61 99.20 89.35 99.28 92.01 C 99.29 95.31 101.89 97.77 103.97 100.05 C 105.30 100.75 106.58 101.53 107.82 102.38 C 111.71 102.47 116.15 103.37 119.46 100.76 C 124.98 97.39 127.30 90.06 124.90 84.08 C 123.55 81.50 121.61 79.34 119.25 77.64 C 117.49 77.06 115.76 76.37 114.09 75.57 C 108.07 75.18 102.57 78.91 99.72 84.03 Z" />
<path fill="#6a00db" opacity="1.00" d=" M 246.19 57.20 C 254.55 55.18 263.56 54.64 271.74 57.65 C 275.44 59.75 279.53 61.20 282.83 63.94 C 286.61 67.09 288.91 71.46 291.24 75.70 C 291.55 77.87 292.28 79.95 293.31 81.90 C 293.51 86.64 293.79 91.43 293.22 96.16 C 292.57 98.49 291.70 100.77 291.20 103.14 C 288.46 108.58 284.63 113.47 279.72 117.11 C 275.99 118.80 272.36 120.83 268.29 121.55 C 265.66 123.79 262.17 123.10 259.01 123.14 C 255.52 123.01 251.66 123.92 248.72 121.49 C 243.98 121.13 239.92 118.64 236.10 116.02 C 233.37 114.01 231.27 111.30 229.13 108.71 C 228.45 107.48 227.80 106.24 227.16 104.99 C 226.64 104.06 226.13 103.13 225.63 102.19 C 225.57 101.61 225.45 100.45 225.39 99.87 C 222.64 93.69 223.39 86.39 224.64 79.88 C 227.64 69.42 235.61 60.34 246.19 57.20 M 246.13 85.05 C 243.34 92.16 248.47 99.41 254.80 102.40 C 257.27 102.45 259.74 102.46 262.22 102.42 C 266.24 100.54 269.69 97.45 271.25 93.21 C 271.52 92.42 271.80 91.64 272.10 90.87 C 271.90 88.95 273.15 86.10 270.82 85.10 C 270.47 84.15 270.13 83.19 269.79 82.24 C 268.05 79.48 265.26 77.77 262.28 76.62 C 255.87 73.76 248.51 79.08 246.13 85.05 Z" />
<path fill="#6a00db" opacity="1.00" d=" M 324.29 56.24 C 330.85 54.60 337.50 56.06 344.08 56.58 C 344.33 56.61 344.84 56.65 345.10 56.68 L 345.92 57.17 C 352.69 60.34 359.09 64.83 362.91 71.43 C 365.56 75.18 366.02 79.82 367.21 84.13 C 367.94 87.38 367.98 90.78 367.39 94.05 C 366.15 99.12 365.26 104.50 361.99 108.75 C 357.59 114.66 351.58 119.98 344.14 121.40 C 339.10 123.86 333.44 123.09 328.03 123.14 C 326.09 123.33 324.36 122.40 322.71 121.53 C 317.74 120.54 313.25 117.92 309.11 115.09 C 304.76 111.39 301.67 106.45 299.71 101.12 C 299.14 99.37 298.72 97.58 298.32 95.78 C 297.18 92.03 297.29 87.81 298.27 84.02 C 299.25 75.24 304.18 67.25 311.18 61.96 C 315.25 59.46 319.55 57.12 324.29 56.24 M 321.07 95.11 C 321.96 96.51 322.80 97.97 324.00 99.15 C 325.14 100.46 327.21 100.54 327.95 102.24 C 331.30 102.53 334.68 102.52 338.03 102.22 C 339.23 100.34 341.51 99.63 343.06 98.09 C 344.46 95.56 346.03 92.96 346.32 90.02 C 346.35 86.20 344.35 82.82 342.19 79.83 C 339.40 77.89 336.34 76.05 332.90 75.66 C 323.93 76.29 316.45 86.65 321.07 95.11 Z" />
<path fill="#6a00db" opacity="1.00" d=" M 1.29 56.43 C 9.61 56.41 17.93 56.44 26.25 56.42 C 29.58 64.17 32.55 72.09 35.50 79.99 C 36.68 84.58 39.45 88.63 39.98 93.41 C 41.10 93.39 42.23 93.37 43.35 93.36 C 43.99 90.21 44.59 87.03 46.00 84.11 C 49.34 76.67 51.44 68.69 55.41 61.53 C 56.31 59.50 56.93 56.25 59.93 56.89 C 66.68 57.41 73.69 55.81 80.24 57.83 C 79.46 59.39 78.63 60.93 77.84 62.49 C 77.37 65.41 76.39 68.26 74.48 70.56 C 73.77 73.52 73.03 76.52 71.44 79.16 C 69.36 82.46 69.37 86.78 66.52 89.64 C 65.18 95.63 62.33 101.11 60.07 106.77 C 57.66 112.14 55.69 117.68 53.13 122.97 C 50.70 131.29 45.63 138.51 43.53 146.95 C 35.39 146.80 27.17 147.54 19.08 146.51 C 20.30 143.62 21.70 140.80 22.76 137.84 C 23.29 136.68 23.80 135.51 24.35 134.36 C 26.21 129.71 31.02 124.67 28.26 119.51 C 26.07 114.64 23.89 109.75 22.41 104.61 C 19.14 98.54 16.80 92.06 14.39 85.63 C 9.55 77.98 7.43 68.95 3.13 61.00 C 2.38 59.54 1.79 58.00 1.29 56.43 Z" />
<path fill="#6a00db" opacity="1.00" d=" M 372.63 100.90 C 375.03 97.53 378.02 94.45 382.04 93.10 C 384.66 92.38 387.40 92.58 390.09 92.65 C 393.61 94.00 396.85 96.07 399.12 99.13 C 401.67 103.49 400.73 108.73 400.60 113.52 C 400.16 113.77 399.27 114.26 398.83 114.51 C 398.67 118.19 395.20 120.51 392.13 121.81 C 387.65 123.70 382.71 122.72 378.26 121.29 L 377.89 121.19 C 375.64 118.67 372.65 116.47 371.74 113.06 C 371.02 109.01 371.13 104.76 372.63 100.90 Z" />
</g>
</svg>
